name D:\school\WTK\thesis\model\3dpredictsim\Results\Batchsim_tmt_linear_v2\Pog_s1_tmt_aCst_d05_k1000_ig24_act.mot
datacolumns 128
datarows 4
range 0.00000000 0.03826172
endheader
time	pelvis_tilt	pelvis_list	pelvis_rotation	pelvis_tx	pelvis_ty	pelvis_tz	hip_flexion_l	hip_adduction_l	hip_rotation_l	hip_flexion_r	hip_adduction_r	hip_rotation_r	knee_angle_l	knee_angle_r	ankle_angle_l	ankle_angle_r	subtalar_angle_l	subtalar_angle_r	tmt_angle_l	tmt_angle_r	mtp_angle_l	mtp_angle_r	lumbar_extension	lumbar_bending	lumbar_rotation	arm_flex_l	arm_add_l	arm_rot_l	arm_flex_r	arm_add_r	arm_rot_r	elbow_flex_l	elbow_flex_r	pro_sup_l	pro_sup_r	glut_med1_l/activation	glut_med2_l/activation	glut_med3_l/activation	glut_min1_l/activation	glut_min2_l/activation	glut_min3_l/activation	semimem_l/activation	semiten_l/activation	bifemlh_l/activation	bifemsh_l/activation	sar_l/activation	add_long_l/activation	add_brev_l/activation	add_mag1_l/activation	add_mag2_l/activation	add_mag3_l/activation	tfl_l/activation	pect_l/activation	grac_l/activation	glut_max1_l/activation	glut_max2_l/activation	glut_max3_l/activation	iliacus_l/activation	psoas_l/activation	quad_fem_l/activation	gem_l/activation	peri_l/activation	rect_fem_l/activation	vas_med_l/activation	vas_int_l/activation	vas_lat_l/activation	med_gas_l/activation	lat_gas_l/activation	soleus_l/activation	tib_post_l/activation	flex_dig_l/activation	flex_hal_l/activation	tib_ant_l/activation	per_brev_l/activation	per_long_l/activation	per_tert_l/activation	ext_dig_l/activation	ext_hal_l/activation	ercspn_l/activation	intobl_l/activation	extobl_l/activation	glut_med1_r/activation	glut_med2_r/activation	glut_med3_r/activation	glut_min1_r/activation	glut_min2_r/activation	glut_min3_r/activation	semimem_r/activation	semiten_r/activation	bifemlh_r/activation	bifemsh_r/activation	sar_r/activation	add_long_r/activation	add_brev_r/activation	add_mag1_r/activation	add_mag2_r/activation	add_mag3_r/activation	tfl_r/activation	pect_r/activation	grac_r/activation	glut_max1_r/activation	glut_max2_r/activation	glut_max3_r/activation	iliacus_r/activation	psoas_r/activation	quad_fem_r/activation	gem_r/activation	peri_r/activation	rect_fem_r/activation	vas_med_r/activation	vas_int_r/activation	vas_lat_r/activation	med_gas_r/activation	lat_gas_r/activation	soleus_r/activation	tib_post_r/activation	flex_dig_r/activation	flex_hal_r/activation	tib_ant_r/activation	per_brev_r/activation	per_long_r/activation	per_tert_r/activation	ext_dig_r/activation	ext_hal_r/activation	ercspn_r/activation	intobl_r/activation	extobl_r/activation	
          0.00000000	         -1.00177232	          2.23381960	          8.91808095	          0.00000000	          0.86384897	         -0.00400797	        -16.17357027	          0.49480054	          3.62250374	         28.22519417	         -3.09622983	         -1.52719037	        -20.26682760	        -10.38883519	        -18.11362890	          8.01877790	          7.54708348	          4.22682005	          0.74032060	          0.01991168	         37.05877364	         -0.05038877	          1.17803478	         -5.19554031	         -3.38788684	          1.55294536	        -13.59483395	         10.50814474	        -17.47194488	        -13.45756217	         14.40082551	         33.70209531	         20.70765093	         86.51662706	         86.51662706	          0.18638950	          0.05191971	          0.07245376	          0.16936042	          0.08915871	          0.05000476	          0.08038207	          0.05001822	          0.05002948	          0.05000256	          0.06154170	          0.24476683	          0.33100088	          0.15372820	          0.06679369	          0.05000437	          0.11520414	          0.10522344	          0.08772580	          0.05037813	          0.05780423	          0.07347228	          0.18596493	          0.42688880	          0.08914431	          0.05144461	          0.06373101	          0.22744802	          0.05458581	          0.05730957	          0.05063501	          0.05000023	          0.06175784	          0.05714038	          0.09077194	          0.07452619	          0.09310638	          0.23281706	          0.31450753	          0.19856100	          0.55317727	          0.59079840	          0.09552666	          0.05000006	          0.06975580	          0.07574244	          0.13788253	          0.05000098	          0.25585547	          0.06219044	          0.05000887	          0.05000125	          0.06062849	          0.06062830	          0.06062844	          0.06062713	          0.05009327	          0.08903117	          0.10809470	          0.13106816	          0.20427890	          0.16702203	          0.05000663	          0.07351828	          0.06064362	          0.05000123	          0.05609731	          0.19766979	          0.07351360	          0.06469799	          0.08927569	          0.05000243	          0.24397665	          0.05000084	          0.22411412	          0.23126843	          0.19272216	          0.05174796	          0.05086564	          0.06036135	          0.05000017	          0.06063053	          0.06062903	          0.61420637	          0.29296913	          0.16421375	          0.56837560	          0.62403264	          0.51857064	          0.05000005	          0.13880777	          0.11273791	
          0.01275391	         -0.98015859	          2.46111708	          8.89313278	          0.02179533	          0.86200514	         -0.00368337	        -16.11885307	          0.39467825	          3.43507987	         27.58097846	         -3.07919632	         -1.35814032	        -22.22924031	        -11.07726465	        -20.22484288	          7.06332860	          8.04761986	          3.93291549	          0.55589881	          0.02731295	         35.37923596	         -0.00125662	          1.45758699	         -5.03991695	         -3.48227594	          1.21946520	        -13.67329393	         10.95420828	        -19.47259693	        -13.49073028	         14.68636055	         34.66805806	         20.92006536	         86.51662706	         86.51662706	          0.15371511	          0.06062815	          0.06062831	          0.13967135	          0.07352919	          0.06062828	          0.12179923	          0.05000058	          0.05000287	          0.05000026	          0.05075804	          0.26467165	          0.30988854	          0.17081870	          0.06059924	          0.06062519	          0.09500874	          0.08678160	          0.07234773	          0.05002326	          0.05001702	          0.06060049	          0.15336497	          0.35205681	          0.07351726	          0.06062898	          0.06062839	          0.18757594	          0.05694639	          0.08913598	          0.08309271	          0.05000354	          0.05093264	          0.05000145	          0.07485945	          0.06146183	          0.07678473	          0.31330244	          0.33511533	          0.19563069	          0.53835028	          0.70916670	          0.07878098	          0.06835467	          0.06062825	          0.06246470	          0.20874522	          0.18573196	          0.27667288	          0.05128910	          0.05000175	          0.08774748	          0.05000024	          0.05000019	          0.05000022	          0.05000007	          0.05000043	          0.07342395	          0.08914555	          0.10809188	          0.16846907	          0.15125598	          0.05000887	          0.06063112	          0.05001296	          0.13614178	          0.13376020	          0.17329011	          0.06062671	          0.05335663	          0.11872778	          0.05000244	          0.20120771	          0.06063020	          0.30441160	          0.32421654	          0.25669894	          0.05000003	          0.05000007	          0.05000001	          0.05000018	          0.05000230	          0.05000103	          0.61178902	          0.31761734	          0.18838371	          0.58645709	          0.57612614	          0.42766428	          0.05000008	          0.11447450	          0.09297473	
          0.02550781	         -0.95290797	          2.66932064	          8.82440971	          0.04343596	          0.85970707	         -0.00335474	        -15.90512180	          0.31080181	          3.28116180	         26.81753091	         -3.02660292	         -1.14591918	        -24.53644498	        -12.19130319	        -21.54219357	          6.25261998	          8.52229594	          3.64211728	          0.39345750	         -0.00872062	         31.83500081	         -0.18747251	          1.71756047	         -4.84360258	         -3.55967604	          0.90256248	        -13.75454831	         11.38627746	        -21.34155030	        -13.53489013	         15.12439235	         35.56717299	         20.94752898	         86.51662706	         86.51662706	          0.12678028	          0.05000011	          0.05000010	          0.11518720	          0.06063958	          0.05000041	          0.17177692	          0.05000029	          0.05000061	          0.05000028	          0.05019547	          0.22433959	          0.27673711	          0.14087449	          0.05000636	          0.05000099	          0.07835369	          0.07157027	          0.05966531	          0.05000100	          0.05000067	          0.05000065	          0.12647987	          0.34285324	          0.06062958	          0.05000081	          0.05000028	          0.15469351	          0.07350968	          0.07351060	          0.06852663	          0.05000024	          0.05000039	          0.05000030	          0.06173647	          0.05068783	          0.06332435	          0.32042579	          0.29280448	          0.17713473	          0.47767062	          0.81130035	          0.35953106	          0.09834177	          0.05000004	          0.05755725	          0.28992501	          0.34783433	          0.45410679	          0.05000243	          0.20245237	          0.30796838	          0.06062854	          0.06853852	          0.06266751	          0.07285511	          0.06061654	          0.06055265	          0.07351821	          0.08914325	          0.13893634	          0.15598383	          0.05000046	          0.05000316	          0.05000097	          0.24981599	          0.20422200	          0.18445841	          0.05000024	          0.05000021	          0.12832803	          0.07077731	          0.32505058	          0.05000163	          0.25104772	          0.26738082	          0.21169917	          0.05000006	          0.05000012	          0.05000002	          0.05000001	          0.05000040	          0.05000031	          0.72672516	          0.31229155	          0.15938677	          0.77649467	          0.73503638	          0.56906929	          0.05000004	          0.09440689	          0.07667608	
          0.03826172	         -0.92354792	          2.83839151	          8.70001877	          0.06452574	          0.85741009	         -0.00298459	        -15.48473941	          0.22896594	          3.15644995	         26.13822907	         -2.92874512	         -0.94555242	        -27.13432477	        -13.42037512	        -22.25486376	          5.45041195	          8.97263465	          3.33159011	          0.21326396	         -0.02433722	         26.62479854	         -0.21127119	          1.93649303	         -4.58891161	         -3.62018033	          0.68137773	        -13.81250856	         11.84271368	        -22.97704223	        -13.57544000	         15.70327309	         36.28160895	         20.73403943	         86.51662706	         86.51662706	          0.10455551	          0.05001089	          0.05000052	          0.09499483	          0.05000968	          0.05000086	          0.22193397	          0.05000024	          0.05000269	          0.05000004	          0.05000024	          0.21824133	          0.24186244	          0.23189241	          0.08917465	          0.09966357	          0.06461824	          0.05902428	          0.05000028	          0.06062149	          0.07351326	          0.08913365	          0.10430773	          0.31149264	          0.05000140	          0.05000335	          0.05000052	          0.12757544	          0.06062826	          0.06062827	          0.06062826	          0.06062782	          0.06062741	          0.06062822	          0.05091405	          0.05000275	          0.05222425	          0.37223693	          0.24147544	          0.15283084	          0.39393417	          0.84193172	          0.29650460	          0.13197785	          0.05000005	          0.05000005	          0.34348016	          0.49333494	          0.62608214	          0.23298544	          0.40087277	          0.48017824	          0.05000040	          0.06062965	          0.05168204	          0.06008382	          0.05000034	          0.05000012	          0.06063041	          0.07351645	          0.11458107	          0.14448731	          0.05000034	          0.05000090	          0.06062823	          0.35163499	          0.26970235	          0.20237150	          0.05000006	          0.05000007	          0.10584139	          0.08914112	          0.33153250	          0.05000004	          0.38639708	          0.42007659	          0.32543845	          0.05000001	          0.05000004	          0.05000000	          0.09963220	          0.05000077	          0.05000046	          0.85230463	          0.25754623	          0.13144596	          0.64037367	          0.64617672	          0.62450018	          0.06189346	          0.07785718	          0.06323462	
